<?xml version="1.0" encoding="UTF-8" standalone="no"?>
<!DOCTYPE svg PUBLIC "-//W3C//DTD SVG 1.1//EN" "http://www.w3.org/Graphics/SVG/1.1/DTD/svg11.dtd">
<svg width="100%" height="100%" viewBox="0 0 608 664" version="1.1" xmlns="http://www.w3.org/2000/svg" xmlns:xlink="http://www.w3.org/1999/xlink" xml:space="preserve" xmlns:serif="http://www.serif.com/" style="fill-rule:evenodd;clip-rule:evenodd;stroke-linejoin:round;stroke-miterlimit:1.41421;">
    <g id="REACT-Vertical" serif:id="REACT Vertical" transform="matrix(1,0,0,1,-0.840942,-1248.02)">
        <g transform="matrix(1.1148,0,0,0.234063,-704.108,1389.73)">
            <g transform="matrix(0.897021,0,0,4.27235,63.9769,-5781.2)">
                <path d="M696.715,1873.53L679.291,1843.72C678.523,1843.82 677.323,1843.87 675.691,1843.87L652.939,1843.87L652.939,1873.53L633.643,1873.53L633.643,1772.73L675.691,1772.73C688.747,1772.73 698.827,1775.76 705.931,1781.8C713.035,1787.85 716.587,1796.4 716.587,1807.44C716.587,1815.31 714.883,1822.03 711.475,1827.6C708.067,1833.16 703.099,1837.34 696.571,1840.12L718.747,1873.53L696.715,1873.53ZM652.939,1826.88L675.691,1826.88C682.987,1826.88 688.555,1825.29 692.395,1822.12C696.235,1818.96 698.155,1814.25 698.155,1808.01C698.155,1801.87 696.235,1797.26 692.395,1794.19C688.555,1791.12 682.987,1789.58 675.691,1789.58L652.939,1789.58L652.939,1826.88Z" style="fill:rgb(51,51,51);fill-rule:nonzero;"/>
            </g>
            <g transform="matrix(0.897021,0,0,4.27235,63.9769,-5781.2)">
                <path d="M770.875,1772.73L844.747,1772.73L844.747,1789.58L790.171,1789.58L790.171,1814.49L839.131,1814.49L839.131,1831.34L790.171,1831.34L790.171,1856.68L846.475,1856.68L846.475,1873.53L770.875,1873.53L770.875,1772.73Z" style="fill:rgb(51,51,51);fill-rule:nonzero;"/>
            </g>
            <g transform="matrix(0.897021,0,0,4.27235,63.9769,-5781.2)">
                <path d="M973.771,1873.53L964.843,1852.22L915.595,1852.22L906.667,1873.53L886.651,1873.53L930.859,1772.73L950.875,1772.73L994.507,1873.53L973.771,1873.53ZM922.507,1835.66L957.931,1835.66L940.363,1793.32L922.507,1835.66Z" style="fill:rgb(51,51,51);fill-rule:nonzero;"/>
            </g>
            <g transform="matrix(0.897021,0,0,4.27235,63.9769,-5781.2)">
                <path d="M1110.28,1801.82C1106.73,1797.69 1102.53,1794.48 1097.68,1792.17C1092.84,1789.87 1087.91,1788.72 1082.92,1788.72C1076.68,1788.72 1070.97,1790.2 1065.79,1793.18C1060.6,1796.16 1056.52,1800.26 1053.55,1805.49C1050.57,1810.72 1049.08,1816.46 1049.08,1822.7C1049.08,1828.94 1050.57,1834.68 1053.55,1839.91C1056.52,1845.14 1060.6,1849.27 1065.79,1852.29C1070.97,1855.32 1076.68,1856.83 1082.92,1856.83C1087.72,1856.83 1092.55,1855.77 1097.39,1853.66C1102.24,1851.55 1106.54,1848.62 1110.28,1844.88L1121.66,1857.55C1116.38,1862.92 1110.24,1867.17 1103.23,1870.29C1096.22,1873.41 1089.12,1874.97 1081.91,1874.97C1072.22,1874.97 1063.34,1872.67 1055.28,1868.06C1047.21,1863.45 1040.88,1857.19 1036.27,1849.27C1031.66,1841.35 1029.36,1832.59 1029.36,1822.99C1029.36,1813.39 1031.71,1804.65 1036.41,1796.78C1041.12,1788.91 1047.52,1782.72 1055.63,1778.2C1063.75,1773.69 1072.75,1771.44 1082.63,1771.44C1089.84,1771.44 1096.89,1772.88 1103.8,1775.76C1110.71,1778.64 1116.62,1782.62 1121.52,1787.71L1110.28,1801.82Z" style="fill:rgb(51,51,51);fill-rule:nonzero;"/>
            </g>
            <g transform="matrix(0.897021,0,0,4.27235,63.9769,-5781.2)">
                <path d="M1159.39,1772.73L1241.61,1772.73L1241.61,1789.87L1210.22,1789.87L1210.22,1873.53L1190.78,1873.53L1190.78,1789.87L1159.39,1789.87L1159.39,1772.73Z" style="fill:rgb(51,51,51);fill-rule:nonzero;"/>
            </g>
        </g>
        <g id="Main-Logo" serif:id="Main Logo" transform="matrix(1,0,0,1,-387.979,736)">
            <g id="Lefts">
                <path d="M498.831,928L443.405,896L443.405,640L498.831,672L498.831,928Z" style="fill:rgb(229,152,45);"/>
                <path d="M665.108,832L665.108,576L609.682,544L609.682,800L665.108,832Z" style="fill:rgb(229,152,45);"/>
                <path d="M665.108,896L831.384,992L886.81,960L886.81,704L831.384,672L831.384,928L775.959,896L775.959,640L720.533,608L720.533,864L665.108,832L665.108,896Z" style="fill:rgb(229,152,45);"/>
            </g>
            <g id="Rights">
                <path d="M554.256,960L665.108,896L665.108,832L554.256,896L554.256,640L498.831,672L498.831,928L554.256,960Z" style="fill:rgb(237,209,36);"/>
                <path d="M665.108,832L720.533,800L720.533,544L665.108,576L665.108,832Z" style="fill:rgb(237,209,36);"/>
                <path d="M886.81,960L942.236,928L942.236,672L886.81,704L886.81,960Z" style="fill:rgb(237,209,36);"/>
                <path d="M775.959,896L831.384,864L831.384,608L775.959,640L775.959,896Z" style="fill:rgb(237,209,36);"/>
            </g>
            <g id="Tops">
                <path d="M665.108,832L609.682,800L554.256,832L554.256,896L665.108,832Z" style="fill:rgb(242,248,60);"/>
                <path d="M443.405,640L498.831,608L554.256,640L498.831,672L443.405,640Z" style="fill:rgb(242,248,60);"/>
                <path d="M609.682,544L665.108,512L720.533,544L665.108,576L609.682,544Z" style="fill:rgb(242,248,60);"/>
                <path d="M831.384,672L886.81,640L942.236,672L886.81,704L831.384,672Z" style="fill:rgb(242,248,60);"/>
                <path d="M775.959,896L831.384,864L831.384,928L775.959,896Z" style="fill:rgb(242,248,60);"/>
                <path d="M720.533,800L720.533,864L665.108,832L720.533,800Z" style="fill:rgb(242,248,60);"/>
                <path d="M720.533,608L775.959,576L831.384,608L775.959,640L720.533,608Z" style="fill:rgb(242,248,60);"/>
            </g>
        </g>
    </g>
</svg>
