<?xml version="1.0" encoding="UTF-8" standalone="no"?>
<!DOCTYPE svg PUBLIC "-//W3C//DTD SVG 1.1//EN" "http://www.w3.org/Graphics/SVG/1.1/DTD/svg11.dtd">
<svg width="100%" height="100%" viewBox="0 0 1065 150" version="1.1" xmlns="http://www.w3.org/2000/svg" xmlns:xlink="http://www.w3.org/1999/xlink" xml:space="preserve" style="fill-rule:evenodd;clip-rule:evenodd;stroke-linejoin:round;stroke-miterlimit:1.41421;">
    <g transform="matrix(1,0,0,1,-67.4813,-75)">
        <g transform="matrix(1,0,0,1,-176.958,-158.691)">
            <path d="M721.558,332.841C725.458,336.841 730.408,338.841 736.408,338.841C742.308,338.841 747.083,336.866 750.733,332.916C754.383,328.966 756.208,323.641 756.208,316.941L756.208,255.141L783.658,255.141L783.658,316.941C783.658,326.041 781.733,334.016 777.883,340.866C774.033,347.716 768.533,352.991 761.383,356.691C754.233,360.391 745.858,362.241 736.258,362.241C726.658,362.241 718.233,360.391 710.983,356.691C703.733,352.991 698.133,347.716 694.183,340.866C690.233,334.016 688.258,326.041 688.258,316.941L688.258,255.141L715.708,255.141L715.708,316.941C715.708,323.541 717.658,328.841 721.558,332.841Z" style="fill:white;fill-rule:nonzero;"/>
            <path d="M931.258,255.141L959.458,255.141L923.908,360.291L895.708,360.291L875.758,288.741L855.508,360.291L827.308,360.291L791.908,255.141L821.458,255.141L842.158,331.941L862.858,255.141L889.708,255.141L910.708,331.941L931.258,255.141Z" style="fill:white;fill-rule:nonzero;"/>
            <path d="M1032.51,360.291L1017.21,331.191L1016.61,331.191L996.808,331.191L996.808,360.291L969.358,360.291L969.358,255.141L1016.61,255.141C1030.51,255.141 1041.28,258.366 1048.93,264.816C1056.58,271.266 1060.41,280.341 1060.41,292.041C1060.41,299.941 1058.81,306.766 1055.61,312.516C1052.41,318.266 1047.76,322.741 1041.66,325.941L1063.56,360.291L1032.51,360.291ZM996.808,309.291L1016.76,309.291C1022.36,309.291 1026.68,307.891 1029.73,305.091C1032.78,302.291 1034.31,298.241 1034.31,292.941C1034.31,287.841 1032.78,283.916 1029.73,281.166C1026.68,278.416 1022.36,277.041 1016.76,277.041L996.808,277.041L996.808,309.291Z" style="fill:white;fill-rule:nonzero;"/>
            <path d="M1076.26,292.666L1098.38,292.666L1098.38,360.291L1076.26,360.291L1076.26,292.666ZM1095.57,264.854C1097.78,267.062 1098.88,269.916 1098.88,273.416C1098.88,276.833 1097.78,279.666 1095.57,281.916C1093.36,284.166 1090.55,285.291 1087.13,285.291C1083.72,285.291 1080.9,284.166 1078.7,281.916C1076.49,279.666 1075.38,276.833 1075.38,273.416C1075.38,269.916 1076.49,267.062 1078.7,264.854C1080.9,262.645 1083.72,261.541 1087.13,261.541C1090.55,261.541 1093.36,262.645 1095.57,264.854Z" style="fill:white;fill-rule:nonzero;"/>
            <path d="M1184.66,307.716C1189.81,312.766 1192.38,319.241 1192.38,327.141C1192.38,333.841 1190.63,339.791 1187.13,344.991C1183.63,350.191 1178.68,354.241 1172.28,357.141C1165.88,360.041 1158.38,361.491 1149.78,361.491C1142.08,361.491 1134.51,360.316 1127.06,357.966C1119.61,355.616 1113.33,352.491 1108.23,348.591L1118.43,329.241C1122.83,332.941 1127.53,335.741 1132.53,337.641C1137.53,339.541 1142.53,340.491 1147.53,340.491C1153.33,340.491 1157.78,339.366 1160.88,337.116C1163.98,334.866 1165.53,331.641 1165.53,327.441C1165.53,323.241 1163.98,320.041 1160.88,317.841C1157.78,315.641 1153.28,314.541 1147.38,314.541L1129.68,314.541L1129.68,299.541L1153.98,276.141L1113.78,276.141L1113.78,255.141L1187.28,255.141L1187.28,271.041L1158.63,297.291L1164.18,298.341C1172.68,299.541 1179.51,302.666 1184.66,307.716Z" style="fill:white;fill-rule:nonzero;"/>
            <path d="M1282.01,261.741C1290.46,266.141 1297.03,272.316 1301.73,280.266C1306.43,288.216 1308.78,297.341 1308.78,307.641C1308.78,317.941 1306.41,327.091 1301.66,335.091C1296.91,343.091 1290.21,349.291 1281.56,353.691C1272.91,358.091 1262.98,360.291 1251.78,360.291L1207.53,360.291L1207.53,255.141L1252.83,255.141C1263.83,255.141 1273.56,257.341 1282.01,261.741ZM1267.68,334.341C1271.78,331.841 1274.98,328.291 1277.28,323.691C1279.58,319.091 1280.73,313.841 1280.73,307.941C1280.73,301.941 1279.51,296.641 1277.06,292.041C1274.61,287.441 1271.23,283.866 1266.93,281.316C1262.63,278.766 1257.73,277.491 1252.23,277.491L1234.98,277.491L1234.98,338.091L1253.58,338.091C1258.88,338.091 1263.58,336.841 1267.68,334.341Z" style="fill:white;fill-rule:nonzero;"/>
        </g>
        <g transform="matrix(1,0,0,1,24.9813,50)">
            <g transform="matrix(1,0,0,1,42.5,25)">
                <path d="M96.1,1.185L96.1,34.185L142.299,34.185L117.3,58.258L117.3,85.385L125.272,85.385L115.862,100.215C115.465,99.945 115.072,99.67 114.681,99.391C113.703,98.693 112.747,97.965 111.807,97.216C111.548,97.007 111.289,96.797 111.032,96.586C109.561,95.367 108.101,94.135 106.635,92.909L105.232,93.185L87.3,127.203L91.008,130.019C91.708,130.543 92.413,131.058 93.13,131.557C93.787,132.015 94.452,132.461 95.125,132.897L88.736,142.966C88.736,142.966 84.686,142.931 83.403,143.068C68.867,144.62 55.849,147.14 41.321,148.815L45.014,136.694C45.609,134.583 44.765,132.25 43.095,130.954L0.9,96.676L9.637,92.569C13.481,91.195 12.406,89.039 11.028,83.83L4.59,60.421L29.101,65.575C31.495,65.937 33.091,64.417 33.454,62.969L36.601,51.948L55.985,73.651C58.741,77.123 64.327,77.123 62.586,69.093L54.307,25.136L65.415,30.888C68.534,32.625 71.653,32.914 73.394,29.803L88.736,1.185L96.1,1.185Z" style="fill:rgb(228,180,41);"/>
            </g>
            <g transform="matrix(1,0,0,1,-24.7375,-50)">
                <g transform="matrix(1,0,0,1,-179.662,-332.715)">
                    <path d="M446,411.048C440.199,413.426 434.613,416.317 429.263,419.582C427.513,420.65 425.788,421.758 424.088,422.902C423.142,423.539 422.205,424.188 421.273,424.845C420.96,425.067 420.648,425.289 420.336,425.512L416.374,428.37L426.524,447.944L407.8,465.1L415.2,466.5C426.533,468.1 435.633,472.267 442.5,479C446.853,483.269 449.827,488.301 451.42,494.098C441.544,504.23 431.652,514.346 421.783,524.486L421.965,546.544C414.361,549.315 405.706,550.7 396,550.7C385.733,550.7 375.633,549.133 365.7,546C355.767,542.867 347.4,538.7 340.6,533.5L354.2,507.7C360.067,512.633 366.333,516.367 373,518.9C379.667,521.433 386.333,522.7 393,522.7C400.733,522.7 406.667,521.2 410.8,518.2C414.933,515.2 417,510.9 417,505.3C417,499.7 414.933,495.433 410.8,492.5C406.667,489.567 400.667,488.1 392.8,488.1L369.2,488.1L369.2,468.1L401.6,436.9L348,436.9L348,408.9L446,408.9L446,411.048ZM452.543,500.051C452.714,501.62 452.8,503.236 452.8,504.9C452.8,513.833 450.467,521.767 445.8,528.7C441.308,535.374 435.024,540.628 426.948,544.46L426.8,526.5L452.543,500.051ZM446,430.1L430.342,444.446L422.8,429.9C424.44,428.717 426.099,427.561 427.786,426.446C431.591,423.928 435.523,421.6 439.582,419.514C441.688,418.432 443.828,417.416 446,416.474L446,430.1Z" style="fill:white;"/>
                </g>
                <g transform="matrix(1,0,0,1,-179.662,-332.715)">
                    <path d="M526.108,550.7L427,550.7L426.8,526.5L477.8,474.1C481.8,469.967 485.067,465.833 487.6,461.7C490.133,457.567 491.4,454.033 491.4,451.1C491.4,447.233 490,444.267 487.2,442.2C484.4,440.133 480.467,439.1 475.4,439.1C469.8,439.1 463.567,440.667 456.7,443.8C449.833,446.933 443.2,451.3 436.8,456.9L422.8,429.9C442.133,415.9 461.533,408.9 481,408.9C487.386,408.9 493.319,409.618 498.8,411.054L498.8,444.242L526.108,444.242L526.108,461.639C525.156,463.742 524.02,465.862 522.7,468C517.967,475.667 511.267,483.833 502.6,492.5L474,521.3L526.108,521.3L526.108,550.7ZM531.108,521.3L533.8,521.3L533.8,550.7L531.108,550.7L531.108,521.3ZM503.8,412.608C504.577,412.889 505.343,413.186 506.1,413.5C513.5,416.567 519.3,420.9 523.5,426.5C526.4,430.366 528.298,434.614 529.196,439.242L503.8,439.242L503.8,412.608Z" style="fill:white;"/>
                </g>
                <g transform="matrix(1.01141,0,0,1.01141,-114.188,13.8705)">
                    <path d="M433.38,61.611L496.98,61.611L496.98,200.641L460.38,200.409L460.38,91.611L433.38,91.611L433.38,61.611Z" style="fill:white;fill-rule:nonzero;"/>
                </g>
            </g>
            <g transform="matrix(-0.612118,0,0,0.612118,463.639,26.185)">
                <path d="M154.994,231.623L228.452,231.655L154.994,0L129.931,46.753C127.087,51.834 121.991,51.363 116.896,48.525L98.75,39.127L112.274,110.939C115.118,124.058 105.993,124.058 101.49,118.386L69.823,82.93L64.682,100.935C64.089,103.3 61.482,105.783 57.572,105.192L17.528,96.771L28.046,135.015C30.297,143.524 32.054,147.048 25.773,149.292L11.5,156.001L80.432,212C83.161,214.117 84.539,217.928 83.568,221.378L77.535,241.179C101.269,238.443 122.536,234.326 146.282,231.791" style="fill:rgb(228,180,41);fill-rule:nonzero;"/>
            </g>
        </g>
    </g>
</svg>
