<?xml version="1.0" encoding="UTF-8" standalone="no"?>
<!DOCTYPE svg PUBLIC "-//W3C//DTD SVG 1.1//EN" "http://www.w3.org/Graphics/SVG/1.1/DTD/svg11.dtd">
<svg width="100%" height="100%" viewBox="0 0 1012 480" version="1.1" xmlns="http://www.w3.org/2000/svg" xmlns:xlink="http://www.w3.org/1999/xlink" xml:space="preserve" xmlns:serif="http://www.serif.com/" style="fill-rule:evenodd;clip-rule:evenodd;stroke-linejoin:round;stroke-miterlimit:1.41421;">
    <g id="Ri3D-Horiztonal" serif:id="Ri3D Horiztonal" transform="matrix(1,0,0,1,-55.4193,-1760)">
        <g transform="matrix(1.04715,0,0,1.04715,-513.298,-656.641)">
            <path d="M1157.15,2585.61L1140.21,2556.63C1139.47,2556.72 1138.3,2556.77 1136.71,2556.77L1114.59,2556.77L1114.59,2585.61L1095.83,2585.61L1095.83,2487.61L1136.71,2487.61C1149.41,2487.61 1159.21,2490.55 1166.11,2496.43C1173.02,2502.31 1176.47,2510.62 1176.47,2521.35C1176.47,2529 1174.82,2535.53 1171.5,2540.95C1168.19,2546.36 1163.36,2550.42 1157.01,2553.13L1178.57,2585.61L1157.15,2585.61ZM1114.59,2540.25L1136.71,2540.25C1143.81,2540.25 1149.22,2538.71 1152.95,2535.63C1156.69,2532.55 1158.55,2527.97 1158.55,2521.91C1158.55,2515.93 1156.69,2511.45 1152.95,2508.47C1149.22,2505.48 1143.81,2503.99 1136.71,2503.99L1114.59,2503.99L1114.59,2540.25Z" style="fill:rgb(37,37,37);fill-rule:nonzero;"/>
            <g transform="matrix(0.16,0,0,0.16,219.718,-717.122)">
                <rect x="6305.22" y="20029.6" width="113.75" height="113.75" style="fill:rgb(37,37,37);"/>
                <rect x="6305.22" y="20257.1" width="113.75" height="385" style="fill:rgb(37,37,37);"/>
            </g>
            <g transform="matrix(1,0,0,1,4.79342,0)">
                <path d="M1337.19,2528.49C1346.25,2529.33 1353.46,2532.08 1358.82,2536.75C1364.19,2541.41 1366.87,2547.53 1366.87,2555.09C1366.87,2561.25 1365.29,2566.68 1362.11,2571.4C1358.94,2576.11 1354.41,2579.8 1348.53,2582.46C1342.65,2585.12 1335.79,2586.45 1327.95,2586.45C1321.33,2586.45 1314.77,2585.45 1308.28,2583.44C1301.8,2581.43 1296.27,2578.75 1291.69,2575.39L1299.11,2560.83C1303.03,2564.1 1307.37,2566.59 1312.13,2568.32C1316.89,2570.05 1321.75,2570.91 1326.69,2570.91C1333.51,2570.91 1338.85,2569.51 1342.72,2566.71C1346.6,2563.91 1348.53,2560.13 1348.53,2555.37C1348.53,2550.51 1346.62,2546.8 1342.79,2544.24C1338.97,2541.67 1333.51,2540.39 1326.41,2540.39L1311.57,2540.39L1311.57,2529.05L1337.89,2503.57L1296.59,2503.57L1296.45,2487.61L1361.97,2487.61L1361.97,2499.23L1332.01,2527.93L1337.19,2528.49Z" style="fill:rgb(37,37,37);fill-rule:nonzero;"/>
            </g>
            <g transform="matrix(1,0,0,1,0.00142072,0)">
                <path d="M1458.15,2487.61C1467.95,2487.61 1476.73,2489.68 1484.47,2493.84C1492.22,2497.99 1498.29,2503.8 1502.67,2511.27C1507.06,2518.74 1509.25,2527.18 1509.25,2536.61C1509.25,2546.03 1507.04,2554.46 1502.6,2561.88C1498.17,2569.3 1492.03,2575.11 1484.19,2579.31C1476.35,2583.51 1467.44,2585.61 1457.45,2585.61L1417.41,2585.61L1417.41,2487.61L1458.15,2487.61ZM1458.57,2569.09C1464.55,2569.09 1469.94,2567.71 1474.74,2564.96C1479.55,2562.2 1483.31,2558.38 1486.01,2553.48C1488.72,2548.58 1490.07,2543 1490.07,2536.75C1490.07,2530.49 1488.67,2524.87 1485.87,2519.88C1483.07,2514.89 1479.22,2511.01 1474.32,2508.26C1469.42,2505.51 1463.94,2504.13 1457.87,2504.13L1436.17,2504.13L1436.17,2569.09L1458.57,2569.09Z" style="fill:rgb(37,37,37);fill-rule:nonzero;"/>
            </g>
        </g>
        <g id="Main-Logo" serif:id="Main Logo" transform="matrix(1,0,0,1,-387.979,1248)">
            <g id="Lefts">
                <path d="M498.831,928L443.405,896L443.405,640L498.831,672L498.831,928Z" style="fill:rgb(229,152,45);"/>
                <path d="M665.108,832L665.108,576L609.682,544L609.682,800L665.108,832Z" style="fill:rgb(229,152,45);"/>
                <path d="M665.108,896L831.384,992L886.81,960L886.81,704L831.384,672L831.384,928L775.959,896L775.959,640L720.533,608L720.533,864L665.108,832L665.108,896Z" style="fill:rgb(229,152,45);"/>
            </g>
            <g id="Rights">
                <path d="M554.256,960L665.108,896L665.108,832L554.256,896L554.256,640L498.831,672L498.831,928L554.256,960Z" style="fill:rgb(237,209,36);"/>
                <path d="M665.108,832L720.533,800L720.533,544L665.108,576L665.108,832Z" style="fill:rgb(237,209,36);"/>
                <path d="M886.81,960L942.236,928L942.236,672L886.81,704L886.81,960Z" style="fill:rgb(237,209,36);"/>
                <path d="M775.959,896L831.384,864L831.384,608L775.959,640L775.959,896Z" style="fill:rgb(237,209,36);"/>
            </g>
            <g id="Tops">
                <path d="M665.108,832L609.682,800L554.256,832L554.256,896L665.108,832Z" style="fill:rgb(242,248,60);"/>
                <path d="M443.405,640L498.831,608L554.256,640L498.831,672L443.405,640Z" style="fill:rgb(242,248,60);"/>
                <path d="M609.682,544L665.108,512L720.533,544L665.108,576L609.682,544Z" style="fill:rgb(242,248,60);"/>
                <path d="M831.384,672L886.81,640L942.236,672L886.81,704L831.384,672Z" style="fill:rgb(242,248,60);"/>
                <path d="M775.959,896L831.384,864L831.384,928L775.959,896Z" style="fill:rgb(242,248,60);"/>
                <path d="M720.533,800L720.533,864L665.108,832L720.533,800Z" style="fill:rgb(242,248,60);"/>
                <path d="M720.533,608L775.959,576L831.384,608L775.959,640L720.533,608Z" style="fill:rgb(242,248,60);"/>
            </g>
        </g>
    </g>
</svg>
