<?xml version="1.0" encoding="UTF-8" standalone="no"?>
<!DOCTYPE svg PUBLIC "-//W3C//DTD SVG 1.1//EN" "http://www.w3.org/Graphics/SVG/1.1/DTD/svg11.dtd">
<svg width="100%" height="100%" viewBox="0 0 1000 544" version="1.1" xmlns="http://www.w3.org/2000/svg" xmlns:xlink="http://www.w3.org/1999/xlink" xml:space="preserve" style="fill-rule:evenodd;clip-rule:evenodd;stroke-linejoin:round;stroke-miterlimit:1.41421;">
    <g transform="matrix(3.48432,-3.47599e-19,3.47599e-19,-3.48716,-40.0697,543.557)">
        <path d="M154.994,0L129.931,46.753C127.087,51.834 121.991,51.363 116.896,48.525L98.75,39.127L112.274,110.939C115.118,124.058 105.993,124.058 101.49,118.386L69.823,82.93L64.682,100.935C64.089,103.3 61.482,105.783 57.572,105.192L17.528,96.771L28.046,135.015C30.297,143.524 32.054,147.048 25.773,149.292L11.5,156.001L298.5,156.001L284.227,149.292C277.946,147.048 279.703,143.524 281.954,135.015L292.472,96.771L252.428,105.192C248.518,105.783 245.911,103.3 245.318,100.935L240.177,82.93L208.51,118.386C204.007,124.058 194.882,124.058 197.726,110.939L211.25,39.127L193.104,48.525C188.009,51.363 182.913,51.834 180.069,46.753" style="fill:rgb(68,68,68);fill-rule:nonzero;"/>
    </g>
</svg>
